<?xml version="1.0" encoding="UTF-8"?>
<svg width="60px" height="60px" viewBox="0 0 60 60" version="1.1" xmlns="http://www.w3.org/2000/svg" xmlns:xlink="http://www.w3.org/1999/xlink">
    <!-- Generator: Sketch 60.1 (88133) - https://sketch.com -->
    <title>编组</title>
    <desc>Created with Sketch.</desc>
    <g id="个人中心" stroke="none" stroke-width="1" fill="none" fill-rule="evenodd">
        <g id="更换手机号" transform="translate(-875.000000, -1092.000000)">
            <g id="分组" transform="translate(872.000000, 1092.000000)">
                <g id="编组" transform="translate(3.000000, 0.000000)">
                    <circle id="椭圆形-copy-8" stroke="#3FBF24" stroke-width="3" fill="#FFFFFF" cx="30" cy="30" r="28.5"></circle>
                    <path d="M44.3231145,24.5490212 L29.2931207,39.3692532 C28.8970574,39.7724296 28.3523098,40 27.7832678,40 C27.2142258,40 26.6694781,39.7724296 26.2734149,39.3692532 L17.6255091,30.8368736 C16.791497,30.0139042 16.791497,28.679607 17.6255091,27.8566375 C18.4595212,27.033668 19.811722,27.033668 20.6457341,27.8566375 L27.8133818,34.9293828 L41.3433876,21.6282156 C41.8815453,21.0893315 42.6711669,20.8764873 43.4122307,21.0705546 C44.1532945,21.2646218 44.732049,21.8358116 44.9285929,22.5670968 C45.1251367,23.298382 44.9093008,24.0775121 44.3630934,24.6084517 L44.3231145,24.5490212 Z" id="路径" fill="#3FBF24"></path>
                </g>
            </g>
        </g>
    </g>
</svg>